<svg clip-rule="evenodd" fill-rule="evenodd" stroke-linejoin="round" stroke-miterlimit="2" viewBox="0 0 560 400" xmlns="http://www.w3.org/2000/svg"><path d="m97.053 30.359-1.552 5.264h-15.89v-.742l2.057-1.418v-16.936l-2.057-1.418v-.742h16.632l.371.371-1.045 4.758h-.742c-.675-2.936-1.654-3.34-6.512-3.34h-2.328v7.793l7.658-.472.169.134-.709 2.497-.202.068-6.916-.674v8.332h2.193c3.947 0 6.006-.606 8.131-3.744zm163.662-15.25-2.058 1.418v18.825l-.269.271h-3.273l-12.079-16.7v14.54l2.43 1.418v.742h-6.681v-.742l2.059-1.418v-17.003l-2.362-1.351v-.742h6.376l11.606 16.127v-13.967l-2.429-1.418v-.742h6.68zm-34.75 18.354 2.429 1.418v.742h-8.771v-.742l2.058-1.418v-16.936l-2.058-1.418v-.742h8.907c6.207 0 9.412 2.126 9.412 6.208 0 4.656-4.52 7.828-11.234 7.828-.304 0-.574 0-.743-.035zm-8.029-18.354-2.092 1.384-6.95 19.13h-4.015l-7.389-19.029-2.158-1.485v-.742h8.704v.742l-2.125 1.451 6.005 15.418h.236l5.061-15.451-2.16-1.418v-.742h6.883zm8.029 11.506c4.723.135 7.591-2.126 7.591-5.937 0-3.139-1.618-4.724-4.858-4.724-.911 0-1.956.235-2.733.606zm-89.607.202c0 5.297-3.543 9.076-8.503 9.076-1.45 0-2.665-.372-3.845-.877v5.195l2.429 1.417v.742h-8.604v-.742l2.093-1.417v-18.488l-2.093-1.249v-.743l5.567-1.113.608.406v2.361c1.316-1.687 3.407-2.732 5.567-2.732 4.014 0 6.781 3.508 6.781 8.164zm13.596-4.453h-.742c-.54-.338-1.114-.507-1.688-.507-1.247 0-2.428.473-3.474 1.383v10.223l2.497 1.418v.742h-8.705v-.742l2.092-1.418v-11.74l-2.092-1.249v-.743l5.6-1.113.608.406v2.664c1.079-1.754 2.969-3.002 4.858-3.002.878 0 1.62.237 2.227.674zm12.685 4.655c-2.26 0-4.79-.067-7.556-.168.371 3.779 2.428 5.971 5.802 5.971 2.024 0 3.34-.506 4.453-1.45l.709.54c-1.113 2.664-3.61 4.115-6.849 4.115-4.959 0-8.299-3.407-8.299-8.603 0-4.959 3.306-8.806 8.333-8.806 2.328 0 4.082.742 5.331 2.194 1.248 1.451 1.855 3.339 1.822 5.667l-.507.507c-.674.033-1.754.033-3.239.033zm6.68 3.813h.709c1.316 2.159 3.239 3.407 4.892 3.407 1.485 0 2.396-.776 2.396-1.99 0-1.384-.81-2.126-2.835-2.901l-1.518-.574c-2.867-1.08-4.588-2.8-4.588-5.061 0-2.8 2.632-4.959 6.545-4.959 2.26 0 4.419.54 6.006 1.484l-1.62 2.767h-.675c-1.113-1.721-2.496-2.598-4.116-2.598-1.45 0-2.395.809-2.395 1.923 0 1.214.877 1.956 3.475 2.969l1.721.675c2.631 1.012 3.778 2.598 3.778 4.656 0 3.238-2.598 5.263-6.545 5.263-2.429 0-4.892-.641-6.68-1.754zm14.811 0h.709c1.316 2.159 3.239 3.407 4.891 3.407 1.485 0 2.396-.776 2.396-1.99 0-1.384-.809-2.126-2.834-2.901l-1.518-.574c-2.868-1.08-4.588-2.8-4.588-5.061 0-2.8 2.631-4.959 6.544-4.959 2.262 0 4.42.54 6.006 1.484l-1.619 2.767h-.676c-1.113-1.721-2.495-2.598-4.115-2.598-1.451 0-2.396.809-2.396 1.923 0 1.214.878 1.956 3.476 2.969l1.72.675c2.632 1.012 3.779 2.598 3.779 4.656 0 3.238-2.598 5.263-6.546 5.263-2.429 0-4.891-.641-6.68-1.754zm-74.762-3.745 4.959 6.376 1.855 1.418v.742h-8.4v-.742l1.755-1.317-3.375-4.587-3.239 4.587 1.957 1.317v.742h-6.68v-.742l2.059-1.384 4.824-5.937-4.926-6.276-1.889-1.484v-.742h8.366v.742l-1.72 1.315 3.34 4.555 3.239-4.555-1.956-1.315v-.742h6.679v.742l-2.058 1.383zm52.731-2.261c-.371-2.969-1.753-4.386-3.609-4.386-2.024 0-3.374 1.991-3.475 4.826zm-29.79 3.711c0-3.744-1.821-6.849-4.757-6.849-1.214 0-2.395.406-3.542 1.249v8.873c.945 1.451 2.395 2.16 4.115 2.16 2.565 0 4.184-2.025 4.184-5.433zm-116.151 21.463c-6.983 0-11.437-3.923-11.437-9.375 0-1.796.532-3.989 2.593-8.444h-7.314l6.715-14.363h46.743c1.064 0 1.795-.797 1.795-1.727 0-.932-.731-1.73-1.795-1.73h-37.833l3.325-7.114c2.061-4.388 6.516-7.247 11.369-7.247h15.892c9.175 0 15.957 6.316 15.957 14.56 0 9.775-8.976 17.621-19.348 17.621h-30.718c-.932 1.928.132 3.458 2.393 3.458h24.468c4.056 0 7.181 2.858 7.181 6.515 0 4.189-4.055 7.846-8.644 7.846z" fill="#da3940" transform="matrix(1.7989 0 0 1.8 45.5 155)"/></svg>